<svg xmlns="http://www.w3.org/2000/svg" viewBox="0 0 520 108" role="img" aria-labelledby="title desc">
  <title id="title">LangChain Academy</title>
  <desc id="desc">Logo da LangChain Academy com fundo branco recortado.</desc>
  <rect x="20" y="20" width="138" height="68" rx="34" fill="#143F3C"/>
  <g stroke="#FFFFFF" stroke-linecap="round" stroke-linejoin="round" stroke-width="4" fill="none">
    <path d="M52 62c8-7 12-20 7.5-34 9 6.8 14.8 19.5 12.6 31.8-1.3 7.5-6 14.4-13 18.6 2-4.7 1.6-10.8-1.2-15.7-1.4 1.2-3.4 1.8-5.4 1.4 1.5-1.2 2.1-3 1.8-4.8-.9-3.9-4-6.9-2.3-11.3Z" stroke="none" fill="#FFFFFF"/>
    <path d="M96 43a12 12 0 0 1 17 0l9 9a12 12 0 0 1 0 17 12 12 0 0 1-17 0"/>
    <path d="M72 67a12 12 0 0 1 0-17 12 12 0 0 1 17 0"/>
    <path d="M85 58h24"/>
  </g>
  <text x="182" y="67" fill="#143F3C" font-family="Avenir Next, Montserrat, Poppins, sans-serif" font-size="36" font-weight="600">LangChain</text>
  <text x="390" y="67" fill="#365855" font-family="Avenir Next, Montserrat, Poppins, sans-serif" font-size="34" font-weight="400">Academy</text>
</svg>
